<svg width="201" height="188" viewBox="0 0 201 188" fill="none" xmlns="http://www.w3.org/2000/svg">
<g clip-path="url(#clip0_536_1412)">
<path d="M11.653 171.876C13.6106 177.911 19.3263 182.135 25.2885 185.724C26.121 186.225 26.9537 186.714 27.7867 187.192C27.7924 187.195 27.7982 187.199 27.8039 187.202C27.844 187.224 27.8841 187.247 27.9215 187.27C28.0934 187.369 28.2654 187.467 28.4359 187.565L28.3422 187.602C28.3422 187.602 28.2503 187.646 28.3509 187.609C28.3808 187.598 28.4122 187.588 28.4421 187.577C31.9057 186.335 35.4309 185.003 38.0853 182.677C40.8388 180.262 42.448 176.474 40.957 173.302C40.761 172.886 40.5135 172.491 40.2189 172.125C40.098 171.971 39.9677 171.824 39.8321 171.679C39.0097 170.787 37.9347 170.106 36.7178 169.705C35.5008 169.305 34.1858 169.2 32.9079 169.401C31.6301 169.602 30.4355 170.101 29.4471 170.849C28.4586 171.596 27.7119 172.563 27.2838 173.652C26.8458 170.028 30.2087 166.992 33.445 164.752C36.6828 162.513 40.3618 160.075 40.9877 156.471C41.3373 154.465 40.5526 152.522 39.1231 150.962C39.0789 150.915 39.0347 150.867 38.9891 150.821C37.2491 149.004 34.8018 147.837 32.1359 147.554C27.1713 147.095 22.3488 149.431 18.7421 152.498C12.9371 157.434 9.42771 165.014 11.653 171.876Z" fill="#F2F2F2"/>
<path d="M20.9838 163.982C20.031 165.3 19.2995 166.733 18.8123 168.238C18.4003 169.584 18.217 170.976 18.2683 172.369C18.4012 175.236 19.3069 178.033 20.9094 180.524C22.1164 182.414 23.5874 184.161 25.2875 185.723C26.12 186.224 26.9527 186.714 27.7857 187.192C27.7914 187.194 27.7972 187.199 27.8029 187.201C27.843 187.224 27.8831 187.247 27.9205 187.27C28.0924 187.369 28.2644 187.467 28.4349 187.565C28.4349 187.565 28.2493 187.645 28.3499 187.609C28.3798 187.598 28.4112 187.588 28.4411 187.577C28.1306 185.315 28.4348 183.02 29.3279 180.884C30.2211 178.748 31.6774 176.834 33.5746 175.301C35.4764 173.792 37.7527 172.703 40.2179 172.124C40.097 171.971 39.9667 171.823 39.8311 171.679C38.879 171.916 37.9524 172.228 37.062 172.61C33.8794 173.968 31.2734 176.201 29.6297 178.978C28.1548 181.499 27.5201 184.342 27.7999 187.173C27.6576 187.058 27.5151 186.941 27.3769 186.825C24.7449 184.645 22.4072 182.142 20.8251 179.253C19.4525 176.807 18.7779 174.098 18.8607 171.366C18.9898 168.386 20.3257 165.626 22.2599 163.224C24.3798 160.66 26.8841 158.367 29.7033 156.407C32.5444 154.384 35.6533 152.679 38.9607 151.328C39.0353 151.297 39.0937 151.242 39.1237 151.173C39.1538 151.105 39.1532 151.03 39.1222 150.962C39.1001 150.901 39.0519 150.85 38.9881 150.821C38.9553 150.808 38.9197 150.803 38.884 150.804C38.8483 150.805 38.8133 150.814 38.7818 150.829C38.3735 150.996 37.968 151.165 37.5657 151.342C34.2152 152.813 31.0834 154.649 28.2423 156.807C25.498 158.886 22.9143 161.262 20.9838 163.982Z" fill="white"/>
<path d="M78.5104 79.8821C84.1073 77.1633 86.0837 70.7964 82.9249 65.6613C79.766 60.5262 72.6681 58.5674 67.0713 61.2863C61.4744 64.0051 59.498 70.372 62.6568 75.5071C65.8157 80.6422 72.9136 82.601 78.5104 79.8821Z" fill="#2F2E41"/>
<path d="M72.791 81.7636C78.0468 81.7636 82.3075 77.9773 82.3075 73.3067C82.3075 68.6361 78.0468 64.8498 72.791 64.8498C67.5351 64.8498 63.2744 68.6361 63.2744 73.3067C63.2744 77.9773 67.5351 81.7636 72.791 81.7636Z" fill="#FFB8B8"/>
<path d="M67.6889 86.2423L66.4651 89.3184L68.2652 98.5769L75.6836 104.054L81.5748 95.9594L78.7383 88.3005L76.611 86.1676C76.6318 85.9759 76.6079 85.7824 76.5406 85.5993C76.4734 85.4162 76.3643 85.2474 76.2202 85.1036C76.076 84.9597 75.9 84.8439 75.7031 84.7634C75.5062 84.6828 75.2927 84.6393 75.076 84.6355L70.43 84.5551C69.8316 84.5447 69.2447 84.7022 68.7527 85.005C68.2606 85.3079 67.8884 85.7408 67.6889 86.2423Z" fill="#CCCCCC"/>
<path d="M87.4024 183.764L92.1528 183.763L92.8087 167.481L87.4009 167.481L87.4024 183.764Z" fill="#FFB8B8"/>
<path d="M101.315 187.682L86.3852 187.683L86.3847 182.558L95.5459 182.557C97.0757 182.557 98.5429 183.097 99.6247 184.058C100.707 185.019 101.314 186.323 101.315 187.682Z" fill="#2F2E41"/>
<path d="M54.1263 183.764L58.8766 183.763L61.1356 167.481L54.1248 167.481L54.1263 183.764Z" fill="#FFB8B8"/>
<path d="M68.0383 187.682L53.109 187.683L53.1084 182.558L62.2697 182.557C63.7995 182.557 65.2667 183.097 66.3485 184.058C67.4303 185.019 68.0382 186.323 68.0383 187.682Z" fill="#2F2E41"/>
<path d="M95.8935 69.4178C96.3809 69.6798 96.7977 70.0335 97.1146 70.4542C97.4315 70.8748 97.6407 71.352 97.7276 71.8523C97.8145 72.3525 97.7769 72.8636 97.6175 73.3496C97.458 73.8356 97.1806 74.2845 96.8048 74.6649L100.734 81.7651L96.4606 84.9392L91.0707 74.8431C90.3935 74.2397 89.9889 73.4364 89.9335 72.5856C89.8782 71.7348 90.176 70.8956 90.7704 70.2268C91.3649 69.5581 92.2148 69.1064 93.159 68.9573C94.1032 68.8082 95.0762 68.972 95.8935 69.4178Z" fill="#FFB8B8"/>
<path d="M67.5714 125.016C65.2556 124.99 62.9438 124.838 60.6487 124.563C60.2559 124.519 59.8784 124.4 59.5415 124.216C59.2046 124.031 58.9162 123.784 58.6958 123.492C58.4753 123.2 58.328 122.869 58.2636 122.522C58.1993 122.175 58.2195 121.82 58.3228 121.48L63.465 104.56L59.3239 94.2356C58.8777 93.1206 58.9277 91.8963 59.4636 90.813C59.9996 89.7297 60.981 88.8693 62.2071 88.4077L67.8954 86.2706L69.605 95.6751L73.678 100.239C73.8133 100.39 73.9885 100.51 74.1881 100.587C74.3878 100.664 74.6057 100.696 74.8226 100.681C75.0395 100.665 75.2488 100.602 75.4318 100.497C75.6149 100.393 75.7662 100.25 75.8722 100.081L78.9652 95.1541L76.4387 86.1011L80.2055 86.4971C81.4216 86.6285 82.5716 87.0608 83.5246 87.7447C84.4776 88.4287 85.1953 89.3368 85.5959 90.3655C86.7535 93.3571 86.8545 96.5916 85.8852 99.6356L84.3243 104.564L87.0652 120.307C87.1401 120.736 87.1163 121.174 86.9951 121.594C86.874 122.015 86.658 122.409 86.3603 122.753C86.0625 123.097 85.6893 123.384 85.2631 123.596C84.837 123.809 84.3668 123.942 83.881 123.988C82.1297 124.167 80.366 124.233 78.604 124.184C77.005 124.123 75.8819 123.257 75.3562 121.678C75.3276 121.586 75.2659 121.504 75.1803 121.446C75.0947 121.388 74.99 121.356 74.8821 121.355C74.7743 121.355 74.6693 121.386 74.583 121.443C74.4967 121.501 74.434 121.582 74.4043 121.674C74.2588 122.132 74.0987 122.643 73.9241 123.205C73.5006 124.571 70.8486 125.016 67.5714 125.016Z" fill="#2F2E41"/>
<path d="M84.0992 94.4749C83.627 94.4761 83.1592 94.394 82.7229 94.2333C82.2105 94.0447 81.7581 93.7469 81.4055 93.3664C81.0529 92.9859 80.811 92.5342 80.7009 92.0511C80.5349 91.2848 80.6505 90.4913 81.0305 89.7878C81.4106 89.0843 82.0351 88.508 82.8119 88.144L93.9115 82.7885L93.3044 80.6553C93.2204 80.3282 93.2463 79.9863 93.3789 79.6721C93.5115 79.3579 93.7449 79.0852 94.0503 78.8878L96.9124 76.9984C97.1298 76.8502 97.3819 76.7471 97.6501 76.6968C97.9182 76.6464 98.1957 76.6501 98.462 76.7075C98.6968 76.7599 98.9154 76.8584 99.1018 76.9957C99.2882 77.133 99.4375 77.3056 99.539 77.5009L101.026 80.3539C102.202 82.611 101.197 85.3909 98.6862 86.82L86.2371 93.9068C85.6001 94.2737 84.8583 94.4709 84.0992 94.4749Z" fill="#2F2E41"/>
<path d="M60.7142 176.195C60.6756 176.195 60.6368 176.194 60.5977 176.191L54.5498 175.975C54.3152 175.962 54.086 175.907 53.876 175.814C53.666 175.72 53.4794 175.589 53.3276 175.43C53.1757 175.271 53.0617 175.086 52.9924 174.886C52.9231 174.686 52.8998 174.476 52.9241 174.269L59.0624 121.79L75.1717 116.585L84.6582 121.355L95.0367 172.205C95.1182 172.594 95.0291 172.996 94.7876 173.328C94.5461 173.661 94.1705 173.899 93.738 173.993L93.7129 173.999L87.5218 173.864C87.095 173.949 86.6477 173.89 86.2679 173.697C85.8881 173.504 85.6034 173.191 85.4701 172.821L72.2851 131.704C72.2455 131.597 72.1674 131.504 72.0628 131.44C71.9582 131.376 71.8328 131.344 71.7058 131.349C71.5789 131.355 71.4573 131.397 71.3598 131.469C71.2623 131.542 71.1942 131.64 71.166 131.75L62.413 174.981C62.3281 175.325 62.1133 175.633 61.8043 175.854C61.4953 176.075 61.1107 176.195 60.7142 176.195Z" fill="#2F2E41"/>
<path d="M64.4798 67.9676C62.9659 69.7288 64.1181 72.7267 66.5281 73.2972C68.9381 73.8676 71.6156 71.7761 71.2881 69.579C70.768 71.8841 72.988 74.2965 75.6236 74.5014C78.2591 74.7063 80.8217 72.8713 81.3983 70.5768C81.9749 68.2823 80.688 65.7754 78.4973 64.4572C76.3066 63.1391 73.373 62.9678 70.8943 63.7896C68.3639 64.6307 66.1442 66.0765 64.4798 67.9676Z" fill="#2F2E41"/>
<path d="M75.952 60.45C74.5423 57.8211 73.0939 55.1418 70.8156 53.0487C68.5372 50.9556 65.2413 49.514 62.0117 50.0075C58.7821 50.5011 56.0009 53.3977 56.7163 56.2396C57.0796 57.6831 55.6887 59.1134 54.0854 59.5111C52.4821 59.9087 50.7735 59.5368 49.1885 59.085C47.6035 58.6331 45.9979 58.0935 44.3348 58.1571C41.0002 58.2847 38.2123 61.0896 38.0952 64.0538C37.978 67.018 40.2471 69.8395 43.2913 71.0556C46.3356 72.2716 49.9771 71.9992 52.9798 70.7042C55.9826 69.4092 58.3836 67.1766 60.1393 64.6541C62.7336 60.9267 69.253 60.0073 73.0184 62.8379C73.4216 63.1192 73.9293 63.2552 74.4403 63.2188C74.9513 63.1824 75.4281 62.9762 75.7758 62.6414C76.4417 61.9509 76.3452 60.786 75.952 60.45Z" fill="#2F2E41"/>
<path d="M147.063 45.6756L143.889 43.1306C132.615 33.9322 125.172 27.962 125.172 20.525C125.172 14.4573 130.425 9.76013 137.212 9.76013C139.091 9.76903 140.946 10.1413 142.647 10.8511C144.348 11.5609 145.855 12.5912 147.063 13.8705C148.271 12.5912 149.778 11.5608 151.48 10.851C153.181 10.1413 155.035 9.769 156.915 9.76013C163.701 9.76013 168.955 14.4573 168.955 20.525C168.955 27.9621 161.512 33.9323 150.238 43.1306L147.063 45.6756Z" fill="#32BFBA"/>
<path d="M94.7986 63.1781C94.5011 63.086 94.2436 62.9134 94.0622 62.6846C93.8807 62.4558 93.7844 62.1823 93.7868 61.9024V3.0989C93.7878 2.27731 94.1556 1.48964 94.8093 0.908685C95.4631 0.327732 96.3494 0.000939565 97.274 0H196.853C197.777 0.000939565 198.664 0.327732 199.317 0.908685C199.971 1.48964 200.339 2.27731 200.34 3.0989V52.6813C200.339 53.5029 199.971 54.2906 199.317 54.8715C198.664 55.4525 197.777 55.7793 196.853 55.7802H102.917L96.4909 62.7603C96.3498 62.9158 96.1714 63.0413 95.9687 63.1276C95.766 63.2139 95.5442 63.2589 95.3194 63.2592C95.1419 63.259 94.9657 63.2315 94.7986 63.1781ZM97.274 0.688645C96.5549 0.689362 95.8655 0.943529 95.357 1.39538C94.8485 1.84724 94.5625 2.45988 94.5617 3.0989V61.9024C94.5617 62.0398 94.6095 62.1738 94.6986 62.2861C94.7876 62.3984 94.9136 62.4834 95.0592 62.5296C95.2048 62.5758 95.3629 62.5809 95.5118 62.5441C95.6608 62.5073 95.7933 62.4305 95.8912 62.3242L102.55 55.0916H196.853C197.572 55.0909 198.261 54.8367 198.77 54.3848C199.278 53.933 199.564 53.3203 199.565 52.6813V3.0989C199.564 2.45988 199.278 1.84724 198.77 1.39538C198.261 0.943529 197.572 0.689362 196.853 0.688645H97.274Z" fill="#3F3D56"/>
<path d="M65.4348 116.847L64.7619 115.457C62.4024 110.463 60.8255 107.203 62.2164 104.512C62.7211 103.488 63.6627 102.685 64.834 102.278C66.0052 101.872 67.3103 101.895 68.462 102.344C68.504 102.36 68.5457 102.377 68.5871 102.395C69.2656 102.675 69.8671 103.084 70.35 103.592C70.8329 104.1 71.1855 104.696 71.3834 105.337C72.0599 105.053 72.7979 104.902 73.5463 104.897C74.2947 104.891 75.0355 105.03 75.7172 105.305C76.286 105.53 76.7993 105.852 77.2278 106.254C77.6563 106.655 77.9916 107.128 78.2146 107.644C78.4377 108.161 78.544 108.711 78.5276 109.265C78.5112 109.818 78.3723 110.362 78.1189 110.868C78.1003 110.905 78.081 110.942 78.0612 110.979C76.6702 113.67 72.86 114.731 67.0597 116.395L65.4348 116.847Z" fill="#32BFBA"/>
<path d="M68.0274 110.019C67.8462 109.539 67.5487 109.101 67.1561 108.734C66.7634 108.367 66.285 108.082 65.7546 107.897C65.2243 107.712 64.6548 107.633 64.0863 107.666C63.5179 107.698 62.9642 107.84 62.4645 108.083L55.5001 103.434L53.819 107.687L61.0163 113.017C61.531 113.736 62.3247 114.262 63.2469 114.496C64.1691 114.73 65.1558 114.655 66.02 114.285C66.8842 113.916 67.5659 113.278 67.9358 112.491C68.3058 111.705 68.3384 110.826 68.0274 110.019Z" fill="#FFB8B8"/>
<path d="M58.0428 111.486C57.736 111.486 57.4355 111.408 57.1764 111.262L54.1856 109.582C51.8192 108.254 50.967 105.433 52.2034 103.022L58.3344 91.0672C58.5804 90.566 58.9593 90.1253 59.4386 89.7825C59.918 89.4397 60.4835 89.2051 61.087 89.0987C61.6327 89.0101 62.1945 89.042 62.7231 89.1916C63.2516 89.3413 63.7306 89.6041 64.1179 89.957C64.7253 90.5207 65.1126 91.2429 65.2228 92.0171C65.333 92.7914 65.1602 93.5765 64.73 94.2568L58.6754 104.107L60.4878 105.606C60.7581 105.84 60.9451 106.14 61.0255 106.468C61.106 106.796 61.0764 107.137 60.9404 107.451L59.6897 110.418C59.5973 110.647 59.4485 110.855 59.2539 111.027C59.0594 111.198 58.8241 111.329 58.5654 111.409C58.397 111.46 58.2205 111.485 58.0428 111.486Z" fill="#2F2E41"/>
<path d="M122.052 188H0.387832C0.28507 188 0.186522 187.964 0.113858 187.899C0.041194 187.834 0.000366211 187.747 0.000366211 187.656C0.000366211 187.564 0.041194 187.477 0.113858 187.412C0.186522 187.348 0.28507 187.311 0.387832 187.311H122.052C122.155 187.311 122.253 187.348 122.326 187.412C122.399 187.477 122.44 187.564 122.44 187.656C122.44 187.747 122.399 187.834 122.326 187.899C122.253 187.964 122.155 188 122.052 188Z" fill="#CCCCCC"/>
</g>
<defs>
<clipPath id="clip0_536_1412">
<rect width="200.34" height="188" fill="white"/>
</clipPath>
</defs>
</svg>
