<svg width="276" height="189" viewBox="0 0 276 189" fill="none" xmlns="http://www.w3.org/2000/svg">
<g clip-path="url(#clip0_536_1434)">
<path d="M45.608 132.929C44.2781 133.072 42.8273 133.286 41.284 133.601C34.7406 134.933 34.6048 139.376 34.6621 140.395L34.6177 140.367C33.9597 141.423 33.5477 142.491 33.2986 143.499L32.999 129.881C33.1927 129.477 33.369 129.019 33.516 128.55C34.0058 130.058 34.8087 131.483 35.5008 131.388C36.4008 131.266 36.7932 128.618 36.6253 126.736C37.7698 128.21 39.6959 129.786 40.4225 129.3C41.0031 128.911 40.6588 127.312 40.0249 125.859C41.3457 126.654 42.8085 127.177 43.2624 126.672C43.8819 125.983 42.3976 123.63 41.0288 122.317C42.861 122.487 45.1914 122.196 45.3441 121.362C45.47 120.675 44.0831 119.808 42.5987 119.25C44.0897 118.856 45.484 118.171 45.4377 117.494C45.3828 116.689 43.3128 116.149 41.5269 116.067C42.8739 115.013 44.1116 113.557 43.7331 112.898C43.3851 112.292 41.7664 112.527 40.273 113.06C41.1568 111.797 41.7781 110.373 41.3049 109.886C40.7155 109.279 38.6234 110.326 37.1956 111.484C37.4735 109.68 37.333 107.403 36.5239 107.197C35.8469 107.025 34.8875 108.349 34.2297 109.792C33.939 108.278 33.3505 106.84 32.6713 106.84C31.7037 106.84 30.9193 109.758 30.9193 111.658C30.9193 111.766 30.9221 111.867 30.927 111.963C30.8299 111.851 30.7186 111.733 30.5917 111.61C29.2282 110.286 26.5889 108.816 25.9147 109.51C25.4415 109.997 26.0629 111.421 26.9467 112.685C25.4532 112.151 23.8345 111.917 23.4866 112.522C23.019 113.336 25.0175 115.368 26.642 116.353C26.5444 116.341 26.4418 116.331 26.3326 116.324C24.4363 116.195 21.4724 116.779 21.4065 117.744C21.3602 118.422 22.7546 119.107 24.2456 119.5C22.7611 120.058 21.3742 120.925 21.5001 121.612C21.6529 122.446 23.9832 122.738 25.8155 122.567C24.4466 123.88 22.9624 126.233 23.5818 126.922C24.0357 127.428 25.4985 126.905 26.8193 126.109C26.1854 127.563 25.8412 129.162 26.4218 129.55C27.1891 130.063 29.2934 128.277 30.4029 126.74C30.2899 128.62 30.7399 131.204 31.6327 131.306C32.006 131.348 32.4017 130.95 32.7587 130.337L31.7475 144.974C31.5111 146.679 33.0231 147.791 33.1583 148.494L33.3764 158.406C33.1302 157.7 32.7986 156.977 32.3517 156.26L32.3072 156.288C32.3646 155.269 32.2287 150.826 25.6854 149.494C24.1421 149.18 22.6913 148.965 21.3614 148.822C19.7916 148.653 19.1792 150.802 20.5974 151.496C22.6512 152.501 24.5831 153.767 25.5901 155.267C28.1645 159.102 31.7217 156.885 32.2274 156.541C32.7923 157.481 33.1628 158.429 33.3967 159.33L33.5125 164.594C33.4842 164.719 33.4645 164.788 33.463 164.794L33.5173 164.81L33.7976 177.549L36.398 177.528L35.4679 164.507C35.6242 163.804 36.105 161.411 35.4679 158.926L34.5378 148.695C34.5906 148.963 34.5354 148.687 34.5378 148.695L33.3245 144.675C33.5009 143.431 33.9104 142.032 34.7419 140.648C35.2477 140.992 38.8048 143.208 41.3793 139.374C42.3863 137.874 44.3182 136.608 46.372 135.603C47.7901 134.909 47.1778 132.76 45.608 132.929ZM33.7293 163.069L33.6802 160.841C33.7791 161.684 33.7741 162.444 33.7293 163.069Z" fill="#F2F2F2"/>
<path d="M244.614 132.929C243.284 133.072 241.833 133.286 240.29 133.601C233.747 134.933 233.611 139.376 233.668 140.395L233.624 140.367C232.966 141.423 232.554 142.491 232.305 143.499L232.005 129.881C232.199 129.477 232.375 129.019 232.522 128.55C233.012 130.058 233.815 131.483 234.507 131.388C235.407 131.266 235.799 128.618 235.631 126.736C236.776 128.21 238.702 129.786 239.428 129.3C240.009 128.911 239.665 127.312 239.031 125.859C240.352 126.654 241.815 127.177 242.268 126.672C242.888 125.983 241.404 123.63 240.035 122.317C241.867 122.487 244.197 122.196 244.35 121.362C244.476 120.675 243.089 119.808 241.605 119.25C243.096 118.856 244.49 118.171 244.444 117.494C244.389 116.689 242.319 116.149 240.533 116.067C241.88 115.013 243.118 113.557 242.739 112.898C242.391 112.292 240.772 112.527 239.279 113.06C240.163 111.797 240.784 110.373 240.311 109.886C239.721 109.279 237.629 110.326 236.202 111.484C236.48 109.68 236.339 107.403 235.53 107.197C234.853 107.025 233.894 108.349 233.236 109.792C232.945 108.278 232.356 106.84 231.677 106.84C230.71 106.84 229.925 109.758 229.925 111.658C229.925 111.766 229.928 111.867 229.933 111.963C229.836 111.851 229.725 111.733 229.598 111.61C228.234 110.286 225.595 108.816 224.921 109.51C224.448 109.997 225.069 111.421 225.953 112.685C224.459 112.151 222.841 111.917 222.493 112.522C222.025 113.336 224.024 115.368 225.648 116.353C225.55 116.341 225.448 116.331 225.339 116.324C223.442 116.195 220.478 116.779 220.412 117.744C220.366 118.422 221.761 119.107 223.252 119.5C221.767 120.058 220.38 120.925 220.506 121.612C220.659 122.446 222.989 122.738 224.821 122.567C223.453 123.88 221.968 126.233 222.588 126.922C223.042 127.428 224.505 126.905 225.825 126.109C225.191 127.563 224.847 129.162 225.428 129.55C226.195 130.063 228.299 128.277 229.409 126.74C229.296 128.62 229.746 131.204 230.639 131.306C231.012 131.348 231.408 130.95 231.765 130.337L230.753 144.974C230.517 146.679 232.029 147.791 232.164 148.494L232.382 158.406C232.136 157.7 231.805 156.977 231.358 156.26L231.313 156.288C231.371 155.269 231.235 150.826 224.691 149.494C223.148 149.18 221.697 148.965 220.367 148.822C218.798 148.653 218.185 150.802 219.603 151.496C221.657 152.501 223.589 153.767 224.596 155.267C227.171 159.102 230.728 156.885 231.233 156.541C231.798 157.481 232.169 158.429 232.403 159.33L232.519 164.594C232.49 164.719 232.471 164.788 232.469 164.794L232.523 164.81L232.804 177.549L235.404 177.528L234.474 164.507C234.63 163.804 235.111 161.411 234.474 158.926L233.544 148.695C233.597 148.963 233.541 148.687 233.544 148.695L232.33 144.675C232.507 143.431 232.916 142.032 233.748 140.648C234.254 140.992 237.811 143.208 240.385 139.374C241.392 137.874 243.324 136.608 245.378 135.603C246.796 134.909 246.184 132.76 244.614 132.929ZM232.735 163.069L232.686 160.841C232.785 161.684 232.78 162.444 232.735 163.069Z" fill="#F2F2F2"/>
<path d="M204.241 91.2387L203.022 62.169C203.022 62.169 201.652 44.9109 200.556 38.8843C199.461 32.8576 192.064 34.5012 192.064 34.5012L192.886 51.7594L196.432 69.4207L199.192 93.4707C199.05 94.1663 198.969 94.9225 198.969 95.7165C198.969 99.0857 200.376 101.817 202.112 101.817C203.848 101.817 205.255 99.0857 205.255 95.7165C205.255 93.9441 204.863 92.3533 204.241 91.2387Z" fill="#FFB6B6"/>
<path d="M144.886 83.7065C146.183 82.1621 147.735 81.1126 149.13 80.7087L165.53 62.169C165.53 62.169 166.9 44.9109 167.996 38.8843C169.092 32.8576 176.488 34.5013 176.488 34.5013L175.666 51.7594L171.009 70.3872L151.818 86.6801C151.483 87.2907 151.072 87.9009 150.58 88.4871C148.245 91.2679 145.078 92.4521 143.506 91.132C141.933 89.8118 142.551 86.4873 144.886 83.7065Z" fill="#FFB6B6"/>
<path d="M180.97 32.1728L182.872 24.859L190.284 24.5025L192.501 34.5843L180.97 32.1728Z" fill="#FFB6B6"/>
<path opacity="0.1" d="M180.97 32.1728L182.872 24.859L190.284 24.5025L192.501 34.5843L180.97 32.1728Z" fill="black"/>
<path d="M162.044 151.992L155.103 151.596L156.013 172.899L160.717 173.168L162.044 151.992Z" fill="#FFB6B6"/>
<path d="M155.412 166.164L157.822 167.263L157.819 168.724C157.819 168.724 158.4 167.033 161.522 166.664L161.894 168.081C161.894 168.081 163.105 169.47 162.897 171.984L162.103 178.714L159.749 178.66L159.369 173.977C159.369 173.977 158.72 172.914 155.733 177.964C155.733 177.964 152.443 178.793 147.347 177.085C146.647 176.85 146.161 176.196 146.17 175.458C146.175 175.05 146.334 174.673 146.845 174.538C148.146 174.194 149.417 174.63 150.257 173.592C151.097 172.554 155.412 166.164 155.412 166.164Z" fill="#2F2E41"/>
<path d="M199.3 151.992L192.358 151.596L193.269 172.899L197.973 173.168L199.3 151.992Z" fill="#FFB6B6"/>
<path d="M192.667 166.164L195.078 167.263L195.075 168.724C195.075 168.724 195.656 167.033 198.777 166.664L199.15 168.081C199.15 168.081 200.361 169.47 200.153 171.984L199.358 178.714L197.004 178.66L196.624 173.977C196.624 173.977 195.976 172.914 192.989 177.964C192.989 177.964 189.699 178.793 184.603 177.085C183.903 176.85 183.416 176.196 183.426 175.458C183.431 175.05 183.59 174.673 184.101 174.538C185.402 174.194 186.672 174.63 187.513 173.592C188.353 172.554 192.667 166.164 192.667 166.164Z" fill="#2F2E41"/>
<path d="M186.668 29.1662C191.207 29.1662 194.886 25.4868 194.886 20.948C194.886 16.4092 191.207 12.7299 186.668 12.7299C182.129 12.7299 178.45 16.4092 178.45 20.948C178.45 25.4868 182.129 29.1662 186.668 29.1662Z" fill="#FFB6B6"/>
<path d="M191.328 22.3141C191.328 22.3141 187.715 16.402 184.098 17.0545C180.482 17.7071 178.596 18.2962 178.596 18.2962C178.596 18.2962 177.123 13.5825 182.068 11.321C182.068 11.321 175.07 5.46194 182.528 1.70178C189.987 -2.05837 194.628 1.58582 194.628 1.58582C194.628 1.58582 200.801 6.82094 193.957 11.6658C193.957 11.6658 199.88 18.4135 193.897 24.859C193.897 24.859 194.953 19.9511 193.517 20.9572C192.08 21.9634 191.328 22.3141 191.328 22.3141Z" fill="#2F2E41"/>
<path d="M192.201 32.7206L180.97 31.351L172.341 38.3364C172.341 38.3364 168.049 50.2939 171.245 57.5121C171.322 57.685 171.382 69.7023 171.382 69.7023H195.245C195.245 69.7023 195.222 61.5227 196.134 58.5602C196.264 58.137 196.413 57.8202 196.584 57.649C197.954 56.2793 201.241 47.5133 199.598 43.6782C197.954 39.843 192.201 32.7206 192.201 32.7206Z" fill="#32BFBA"/>
<path d="M171.245 69.1545L156.178 117.094L152.891 154.897H162.068L169.875 119.833L180.627 99.5357L191.242 157.637H200.506L200.282 79.0163L195.225 69.1545H171.245Z" fill="#2F2E41"/>
<path d="M276 177.615H0V178.456H276V177.615Z" fill="#3F3D56"/>
<path d="M141.477 78.8568C138.741 74.4515 132.359 73.4151 127.618 75.5165C122.877 77.618 119.6 82.0986 117.373 86.7813C115.145 91.464 113.744 96.5093 111.454 101.162C104.718 114.852 91.0757 123.793 82.4942 136.409C76.0465 145.888 72.6321 157.397 72.8674 168.858C72.9576 173.248 73.6675 177.867 76.4072 181.298C80.4737 186.392 87.6735 187.437 94.1564 188.107C97.9222 188.497 102.544 188.486 104.484 185.234C105.251 183.948 97.007 179.461 97.1393 177.97C97.853 169.92 106.961 164.808 107.674 156.758C108.793 162.367 107.359 168.158 107.586 173.873C107.812 179.588 110.629 186.052 116.225 187.234C117.952 187.598 119.902 187.346 121.211 186.162C122.519 184.978 122.902 182.741 121.736 181.416C122.93 182.635 124.944 182.952 126.455 182.158C127.965 181.364 128.847 179.525 128.52 177.85C128.279 176.619 127.484 175.583 126.796 174.533C123.067 168.849 122.096 161.442 124.233 154.989C128.01 143.581 140.414 136.135 142.515 124.304C144.076 115.517 139.624 105.561 144.348 97.9897C146.477 94.5778 150.092 92.4269 152.976 89.6233C155.859 86.8197 158.114 82.5302 156.464 78.8626L141.726 78.8466" fill="#3F3D56"/>
<path d="M96.0269 179.563C95.6601 179.563 95.2843 179.465 94.9211 179.27C94.0844 178.821 93.4535 177.934 93.3136 177.01C93.0809 175.472 93.8133 173.979 94.4017 172.779C96.0114 169.498 97.6026 165.989 97.8371 162.344C98.0933 158.364 96.4788 154.674 93.7242 152.945C91.677 151.659 88.9436 151.329 86.028 152.015C83.4455 152.622 81.1256 153.863 78.5766 155.303C78.3742 155.418 78.1177 155.346 78.0034 155.144C77.889 154.942 77.9604 154.685 78.1627 154.571C80.6729 153.152 83.1485 151.827 85.8353 151.195C88.9718 150.458 91.9323 150.826 94.1716 152.232C97.1841 154.124 98.9525 158.114 98.6769 162.398C98.4325 166.197 96.8041 169.793 95.1571 173.15C94.5924 174.301 93.9522 175.607 94.1456 176.884C94.2457 177.545 94.7171 178.206 95.3188 178.528C95.6118 178.686 96.0588 178.827 96.5229 178.611C96.7339 178.513 96.9839 178.604 97.082 178.815C97.1801 179.025 97.089 179.276 96.8783 179.374C96.6079 179.5 96.3204 179.563 96.0269 179.563Z" fill="#2F2E41"/>
<path d="M128.27 78.568C127.719 80.0769 128.454 81.768 129.472 83.0099C130.491 84.2519 131.8 85.2507 132.697 86.5828C134.579 89.375 134.297 93.1922 132.851 96.233C131.405 99.2738 128.968 101.71 126.577 104.081C126.754 103.065 126.24 102.038 125.539 101.28C124.839 100.523 123.957 99.9602 123.173 99.2885C119.524 96.1606 118.383 90.4606 120.546 86.169" fill="#2F2E41"/>
<path d="M78.4337 168.338C75.343 167.96 72.7323 170.741 69.6478 171.167C66.0811 171.66 62.8009 168.838 61.214 165.606C59.627 162.374 59.2198 158.705 58.128 155.274C57.0363 151.843 54.93 148.367 51.4984 147.277C50.0587 146.819 48.4298 146.844 47.0923 147.547C45.7549 148.249 44.7746 149.683 44.8081 151.193C44.8492 153.051 46.2744 154.539 47.1378 156.185C48.5115 158.804 48.4689 161.906 49.0757 164.801C50.5346 171.761 56.1961 177.663 63.0894 179.411C66.6541 180.314 70.6447 180.107 73.7326 178.11C76.8206 176.113 78.7027 172.091 77.5596 168.596" fill="#3F3D56"/>
</g>
<defs>
<clipPath id="clip0_536_1434">
<rect width="276" height="188.28" fill="white"/>
</clipPath>
</defs>
</svg>
