<svg width="251" height="188" viewBox="0 0 251 188" fill="none" xmlns="http://www.w3.org/2000/svg">
<g clip-path="url(#clip0_536_1457)">
<path d="M235.733 170.558C235.581 176.225 234.631 181.842 232.912 187.245C232.874 187.37 232.832 187.494 232.791 187.619H222.267C222.278 187.507 222.29 187.381 222.301 187.245C223.002 179.178 218.994 130.667 214.157 122.271C214.58 122.952 236.549 144.926 235.733 170.558Z" fill="#F0F0F0"/>
<path d="M234.943 187.245C234.855 187.37 234.763 187.495 234.669 187.619H226.774C226.834 187.512 226.903 187.387 226.984 187.245C228.288 184.891 232.148 177.853 235.731 170.558C239.581 162.717 243.115 154.58 242.818 151.635C242.91 152.298 245.574 172.549 234.943 187.245Z" fill="#F0F0F0"/>
<path d="M51.996 115.286H36.9542C36.5469 115.285 36.1564 115.123 35.8684 114.835C35.5804 114.547 35.4183 114.157 35.4178 113.749V93.0142C35.4183 92.6069 35.5804 92.2164 35.8684 91.9284C36.1564 91.6404 36.5469 91.4784 36.9542 91.478H51.996C52.4033 91.4784 52.7938 91.6404 53.0819 91.9284C53.3699 92.2164 53.5319 92.6069 53.5324 93.0142V113.749C53.5319 114.157 53.3699 114.547 53.0819 114.835C52.7938 115.123 52.4033 115.285 51.996 115.286Z" fill="#E6E6E6"/>
<path d="M79.4257 115.286H64.3839C63.9766 115.285 63.5861 115.123 63.2981 114.835C63.01 114.547 62.848 114.157 62.8475 113.749V73.347C62.848 72.9397 63.01 72.5492 63.2981 72.2612C63.5861 71.9732 63.9766 71.8112 64.3839 71.8108H79.4257C79.833 71.8112 80.2235 71.9732 80.5116 72.2612C80.7996 72.5492 80.9616 72.9397 80.9621 73.347V113.749C80.9616 114.157 80.7996 114.547 80.5116 114.835C80.2235 115.123 79.833 115.285 79.4257 115.286Z" fill="#E6E6E6"/>
<path d="M106.856 115.286H91.8145C91.4071 115.285 91.0166 115.123 90.7286 114.835C90.4406 114.547 90.2786 114.157 90.2781 113.749V93.0142C90.2786 92.6069 90.4406 92.2164 90.7286 91.9284C91.0166 91.6404 91.4071 91.4784 91.8145 91.478H106.856C107.264 91.4784 107.654 91.6404 107.942 91.9284C108.23 92.2164 108.392 92.6069 108.393 93.0142V113.749C108.392 114.157 108.23 114.547 107.942 114.835C107.654 115.123 107.264 115.285 106.856 115.286Z" fill="#E6E6E6"/>
<path d="M134.287 115.286H119.246C118.848 115.294 118.462 115.145 118.174 114.87C117.886 114.595 117.719 114.217 117.709 113.819V65.5141C117.719 65.1161 117.886 64.7382 118.174 64.4633C118.462 64.1884 118.848 64.0388 119.246 64.0474H134.287C134.685 64.0388 135.071 64.1884 135.359 64.4633C135.647 64.7382 135.814 65.1161 135.824 65.5141V113.819C135.814 114.217 135.647 114.595 135.359 114.87C135.071 115.145 134.685 115.294 134.287 115.286Z" fill="#E6E6E6"/>
<path d="M161.718 115.286H146.676C146.268 115.285 145.878 115.123 145.59 114.835C145.302 114.547 145.14 114.157 145.139 113.749V51.6096C145.14 51.2022 145.302 50.8118 145.59 50.5238C145.878 50.2358 146.268 50.0738 146.676 50.0733H161.718C162.125 50.0738 162.515 50.2358 162.803 50.5238C163.091 50.8118 163.253 51.2022 163.254 51.6096V113.749C163.253 114.157 163.091 114.547 162.803 114.835C162.515 115.123 162.125 115.285 161.718 115.286Z" fill="#F2F2F2"/>
<path d="M44.4745 85.2675C46.1895 85.2675 47.5798 83.8772 47.5798 82.1621C47.5798 80.4471 46.1895 79.0568 44.4745 79.0568C42.7595 79.0568 41.3691 80.4471 41.3691 82.1621C41.3691 83.8772 42.7595 85.2675 44.4745 85.2675Z" fill="#3F3D56"/>
<path d="M71.905 65.0825C73.6201 65.0825 75.0104 63.6922 75.0104 61.9772C75.0104 60.2621 73.6201 58.8718 71.905 58.8718C70.19 58.8718 68.7997 60.2621 68.7997 61.9772C68.7997 63.6922 70.19 65.0825 71.905 65.0825Z" fill="#3F3D56"/>
<path d="M99.3354 85.2675C101.05 85.2675 102.441 83.8772 102.441 82.1621C102.441 80.4471 101.05 79.0568 99.3354 79.0568C97.6204 79.0568 96.2301 80.4471 96.2301 82.1621C96.2301 83.8772 97.6204 85.2675 99.3354 85.2675Z" fill="#3F3D56"/>
<path d="M126.766 55.2488C128.481 55.2488 129.872 53.8585 129.872 52.1435C129.872 50.4285 128.481 49.0381 126.766 49.0381C125.051 49.0381 123.661 50.4285 123.661 52.1435C123.661 53.8585 125.051 55.2488 126.766 55.2488Z" fill="#3F3D56"/>
<path d="M154.198 43.8624C155.913 43.8624 157.303 42.4721 157.303 40.7571C157.303 39.042 155.913 37.6517 154.198 37.6517C152.483 37.6517 151.092 39.042 151.092 40.7571C151.092 42.4721 152.483 43.8624 154.198 43.8624Z" fill="#3F3D56"/>
<path d="M99.4012 82.8576L71.9049 62.2629L44.7849 82.5762L44.1642 81.7477L71.9049 60.9693L99.2701 81.4663L126.464 51.7076L126.573 51.6633L154.003 40.6111L154.39 41.5714L127.069 52.5794L99.4012 82.8576Z" fill="#3F3D56"/>
<path d="M192.568 182.929L187.895 182.929L185.672 164.907L192.569 164.907L192.568 182.929Z" fill="#FFB6B6"/>
<path d="M193.759 187.458L178.693 187.458V187.267C178.694 185.712 179.311 184.221 180.411 183.121C181.511 182.021 183.002 181.403 184.557 181.403H184.558L193.759 181.404L193.759 187.458Z" fill="#2F2E41"/>
<path d="M175.87 106.649L178.522 148.913L187.429 178.663L194.329 179.162L190.864 142.906L192.383 118.828C192.383 118.828 199.585 113.459 195.603 106.997L175.87 106.649Z" fill="#2F2E41"/>
<path d="M195.617 182.929L190.944 182.929L188.721 164.907L195.617 164.907L195.617 182.929Z" fill="#FFB6B6"/>
<path d="M196.808 187.458L181.742 187.458V187.267C181.742 185.712 182.36 184.221 183.46 183.121C184.559 182.021 186.051 181.403 187.606 181.403H187.606L196.808 181.404L196.808 187.458Z" fill="#2F2E41"/>
<path d="M178.918 106.649L181.571 148.913L190.477 178.663L197.377 179.162L193.912 142.906L195.432 118.828C195.432 118.828 202.634 113.459 198.652 106.997L178.918 106.649Z" fill="#2F2E41"/>
<path d="M193.298 113.194C185.342 113.194 175.977 108.332 175.434 108.046L175.283 107.967L193.545 61.3789L202.589 57.1063C203.285 56.7773 204.057 56.6401 204.824 56.709C205.591 56.7778 206.326 57.05 206.952 57.4977C207.579 57.9454 208.075 58.5522 208.389 59.2555C208.703 59.9588 208.823 60.7331 208.738 61.4986L205.149 93.6954L201.403 110.371L201.363 110.41C199.295 112.453 196.403 113.194 193.298 113.194Z" fill="#3F3D56"/>
<path d="M164.117 82.354C164.59 82.054 165.123 81.8613 165.679 81.7897C166.235 81.718 166.799 81.769 167.333 81.9392C167.867 82.1093 168.357 82.3944 168.769 82.7745C169.18 83.1545 169.504 83.6201 169.716 84.1386L183.315 83.3958L179.747 89.5076L167.38 89.2761C166.485 89.5749 165.512 89.5352 164.645 89.1644C163.777 88.7937 163.076 88.1176 162.674 87.2644C162.272 86.4112 162.196 85.44 162.462 84.535C162.728 83.63 163.317 82.854 164.117 82.354Z" fill="#FFB6B6"/>
<path d="M190.953 91.9214L177.325 91.5736L177.501 82.559L183.945 80.5079L194.515 65.6824C195.045 64.9401 195.717 64.3114 196.494 63.8335C197.27 63.3556 198.135 63.0383 199.036 62.9002C199.937 62.7622 200.857 62.8062 201.741 63.0298C202.624 63.2533 203.454 63.6518 204.182 64.2017C204.909 64.7516 205.518 65.4418 205.974 66.2313C206.43 67.0209 206.723 67.8938 206.836 68.7985C206.948 69.7032 206.878 70.6213 206.63 71.4986C206.382 72.3758 205.96 73.1943 205.39 73.9058L190.953 91.9214Z" fill="#3F3D56"/>
<path d="M198.844 55.3897C203.845 55.3897 207.899 51.3355 207.899 46.3344C207.899 41.3334 203.845 37.2792 198.844 37.2792C193.843 37.2792 189.789 41.3334 189.789 46.3344C189.789 51.3355 193.843 55.3897 198.844 55.3897Z" fill="#FFB6B6"/>
<path d="M187.387 38.7883C188.301 37.8512 189.489 37.2281 190.779 37.0085C192.037 36.7379 193.417 36.654 194.423 35.8651C195.566 34.9543 196.069 33.224 197.472 32.8391C198.082 32.7165 198.714 32.7666 199.297 32.9839C201.538 33.6599 203.528 34.9864 205.014 36.795C205.364 37.3133 205.81 37.7597 206.329 38.1099C206.639 38.2411 206.941 38.3887 207.236 38.552C207.559 38.8068 207.813 39.1382 207.975 39.5162C208.986 41.5575 209.219 43.8973 208.631 46.098C208.28 47.3976 207.647 48.6019 207.274 49.9092C206.9 51.2164 205.173 53.7031 204.769 53.0857C204.365 52.4683 203.847 51.8928 203.626 51.1801C203.194 49.7783 203.584 48.3675 202.487 47.3938C201.809 46.7916 200.581 46.3877 200.12 47.1651C199.937 47.4662 199.949 47.8473 199.793 48.1598C199.484 48.7696 198.592 48.8916 198.001 48.541C197.432 48.1479 197.032 47.5545 196.881 46.8793C195.993 43.8761 194.48 41.9858 191.267 43.2702C190.07 43.7504 188.66 44.0743 187.509 43.2511C185.992 42.1687 186.301 40.0231 187.387 38.7883Z" fill="#2F2E41"/>
<path d="M167.054 120.24H152.012C151.604 120.24 151.214 120.078 150.926 119.79C150.638 119.502 150.476 119.111 150.475 118.704V56.564C150.476 56.1567 150.638 55.7662 150.926 55.4782C151.214 55.1902 151.604 55.0282 152.012 55.0277H167.054C167.461 55.0282 167.851 55.1902 168.139 55.4782C168.427 55.7662 168.589 56.1567 168.59 56.564V118.704C168.589 119.111 168.427 119.502 168.139 119.79C167.851 120.078 167.461 120.24 167.054 120.24Z" fill="#32BFBA"/>
<path d="M163.736 87.6896C164.209 87.3895 164.742 87.1969 165.298 87.1252C165.854 87.0536 166.418 87.1046 166.952 87.2747C167.486 87.4449 167.976 87.73 168.388 88.11C168.799 88.49 169.123 88.9557 169.335 89.4742L182.934 88.7313L179.366 94.8432L166.999 94.6116C166.104 94.9105 165.131 94.8708 164.264 94.5C163.396 94.1292 162.695 93.4532 162.293 92.6C161.891 91.7467 161.815 90.7756 162.081 89.8706C162.347 88.9656 162.936 88.1895 163.736 87.6896Z" fill="#FFB6B6"/>
<path d="M190.572 97.2568L176.944 96.909L177.12 87.8944L183.564 85.8433L194.134 71.0178C194.664 70.2754 195.336 69.6467 196.113 69.1689C196.889 68.691 197.754 68.3737 198.655 68.2356C199.556 68.0976 200.476 68.1416 201.36 68.3652C202.243 68.5887 203.073 68.9872 203.801 69.5371C204.528 70.087 205.137 70.7772 205.593 71.5667C206.049 72.3562 206.342 73.2292 206.455 74.1339C206.567 75.0386 206.497 75.9567 206.249 76.8339C206.001 77.7112 205.579 78.5297 205.009 79.2411L190.572 97.2568Z" fill="#3F3D56"/>
<path d="M250.111 188H104.906C104.856 188 104.807 187.99 104.76 187.971C104.714 187.952 104.672 187.924 104.636 187.889C104.601 187.853 104.572 187.811 104.553 187.765C104.534 187.719 104.524 187.669 104.524 187.619C104.524 187.569 104.534 187.519 104.553 187.473C104.572 187.427 104.601 187.384 104.636 187.349C104.672 187.314 104.714 187.286 104.76 187.267C104.807 187.247 104.856 187.238 104.906 187.238H250.111C250.161 187.238 250.211 187.247 250.257 187.267C250.303 187.286 250.345 187.314 250.381 187.349C250.416 187.384 250.445 187.427 250.464 187.473C250.483 187.519 250.493 187.569 250.493 187.619C250.493 187.669 250.483 187.719 250.464 187.765C250.445 187.811 250.416 187.853 250.381 187.889C250.345 187.924 250.303 187.952 250.257 187.971C250.211 187.99 250.161 188 250.111 188Z" fill="#CACACA"/>
</g>
<defs>
<clipPath id="clip0_536_1457">
<rect width="250.492" height="188" fill="white"/>
</clipPath>
</defs>
</svg>
